<svg width="44" height="44" viewBox="0 0 44 44" fill="none" xmlns="http://www.w3.org/2000/svg">
<path d="M36.366 19.2243C36.3243 19.5429 36.1905 19.8424 35.981 20.086L18.106 39.721C17.8794 40.014 17.5644 40.2261 17.2077 40.326C17.0549 40.3443 16.9021 40.3443 16.7493 40.326C16.4899 40.3248 16.2337 40.2686 15.9977 40.161C15.6301 39.9884 15.3372 39.6889 15.1727 39.3177C15.0128 38.9874 14.9677 38.6132 15.0443 38.2543L16.621 25.6777H9.966C9.58561 25.654 9.21277 25.5608 8.866 25.4027C8.52659 25.2239 8.23575 24.9653 8.01856 24.6491C7.80137 24.3329 7.66436 23.9686 7.61934 23.5877C7.58085 23.201 7.6375 22.8108 7.78434 22.451L14.7143 5.126C14.8977 4.68783 15.202 4.312 15.5943 4.04433C15.987 3.78911 16.4461 3.6552 16.9143 3.65933H30.1877C30.5708 3.66667 30.9467 3.76017 31.2877 3.93433C31.6323 4.12683 31.9275 4.39817 32.1493 4.72267C32.3547 5.05083 32.4793 5.41933 32.516 5.80433C32.5536 6.18672 32.4904 6.5723 32.3327 6.92267L27.951 17.1343H34.6427C34.9752 17.1455 35.2984 17.2469 35.5777 17.4277C35.8721 17.6245 36.1032 17.9023 36.2431 18.2277C36.383 18.553 36.4257 18.9119 36.366 19.261V19.2243Z" fill="#9A8C8C"/>
</svg>
