<svg width="36" height="37" viewBox="0 0 36 37" fill="none" xmlns="http://www.w3.org/2000/svg">
<path d="M1.14765 4.5906C1.14765 2.0586 3.20625 0 5.73825 0H17.2148C19.7468 0 21.8054 2.0586 21.8054 4.5906V18.3624H22.3792C25.8652 18.3624 28.6913 21.1885 28.6913 24.6745V26.9698C28.6913 27.9238 29.4588 28.6913 30.4127 28.6913C31.3667 28.6913 32.1342 27.9238 32.1342 26.9698V15.9237C30.1545 15.4144 28.6913 13.614 28.6913 11.4765V7.20868L26.8407 5.17877C26.2023 4.47584 26.2525 3.38557 26.9554 2.74719C27.6584 2.10881 28.7487 2.15902 29.387 2.86195L34.5299 8.51413C35.2042 9.25293 35.5772 10.2141 35.5772 11.2183V26.9698C35.5772 29.8246 33.2675 32.1342 30.4127 32.1342C27.558 32.1342 25.2483 29.8246 25.2483 26.9698V24.6745C25.2483 23.0893 23.9644 21.8054 22.3792 21.8054H21.8054V33.3823C22.4724 33.619 22.953 34.2574 22.953 35.0033C22.953 35.9573 22.1855 36.7248 21.2315 36.7248H1.72148C0.767491 36.7248 0 35.9573 0 35.0033C0 34.2502 0.480579 33.619 1.14765 33.3823V4.5906ZM5.73825 5.73825V12.6242C5.73825 13.2554 6.2547 13.7718 6.88591 13.7718H16.0671C16.6983 13.7718 17.2148 13.2554 17.2148 12.6242V5.73825C17.2148 5.10705 16.6983 4.5906 16.0671 4.5906H6.88591C6.2547 4.5906 5.73825 5.10705 5.73825 5.73825Z" fill="#9A8C8C"/>
</svg>
