<svg width="37" height="41" viewBox="0 0 37 41" fill="none" xmlns="http://www.w3.org/2000/svg">
<path d="M0 35.5772V14.9195C0 14.1926 0.162966 13.504 0.488899 12.8537C0.814831 12.2034 1.26395 11.6678 1.83624 11.247L15.608 0.918121C16.4114 0.30604 17.3295 0 18.3624 0C19.3953 0 20.3134 0.30604 21.1168 0.918121L34.8886 11.247C35.4624 11.6678 35.9123 12.2034 36.2382 12.8537C36.5641 13.504 36.7263 14.1926 36.7248 14.9195V35.5772C36.7248 36.8396 36.2749 37.9207 35.3752 38.8204C34.4754 39.7202 33.3951 40.1693 32.1342 40.1678H25.2483C24.598 40.1678 24.0532 39.9474 23.6141 39.5067C23.1749 39.066 22.9545 38.5213 22.953 37.8725V26.396C22.953 25.7456 22.7327 25.2009 22.292 24.7617C21.8513 24.3225 21.3065 24.1022 20.6577 24.1007H16.0671C15.4168 24.1007 14.872 24.321 14.4329 24.7617C13.9937 25.2024 13.7733 25.7472 13.7718 26.396V37.8725C13.7718 38.5228 13.5515 39.0683 13.1108 39.509C12.6701 39.9497 12.1253 40.1693 11.4765 40.1678H4.5906C3.32819 40.1678 2.24786 39.7187 1.34964 38.8204C0.451409 37.9222 0.0015302 36.8411 0 35.5772Z" fill="#9A8C8C"/>
</svg>
